<?xml version="1.0" encoding="UTF-8" standalone="no"?>
<!-- Created with Inkscape (http://www.inkscape.org/) -->

<svg
   xmlns:dc="http://purl.org/dc/elements/1.1/"
   xmlns:cc="http://creativecommons.org/ns#"
   xmlns:rdf="http://www.w3.org/1999/02/22-rdf-syntax-ns#"
   xmlns:svg="http://www.w3.org/2000/svg"
   xmlns="http://www.w3.org/2000/svg"
   xmlns:sodipodi="http://sodipodi.sourceforge.net/DTD/sodipodi-0.dtd"
   xmlns:inkscape="http://www.inkscape.org/namespaces/inkscape"
   width="744.09448819"
   height="1052.3622047"
   id="svg20400"
   version="1.1"
   inkscape:version="0.48.4 r9939"
   sodipodi:docname="l2-simple.svg">
  <defs
     id="defs20402">
    <marker
       inkscape:stockid="Arrow2Sstart"
       orient="auto"
       refY="0.0"
       refX="0.0"
       id="Arrow2Sstart"
       style="overflow:visible">
      <path
         id="path37786"
         style="fill-rule:evenodd;stroke-width:0.62500000;stroke-linejoin:round"
         d="M 8.7185878,4.0337352 L -2.2072895,0.016013256 L 8.7185884,-4.0017078 C 6.9730900,-1.6296469 6.9831476,1.6157441 8.7185878,4.0337352 z "
         transform="scale(0.3) translate(-2.3,0)" />
    </marker>
    <clipPath
       id="clipPath51206"
       clipPathUnits="userSpaceOnUse">
      <path
         inkscape:connector-curvature="0"
         id="path51208"
         d="m 1285,0 5356,0 0,9410 -5356,0 0,-9410" />
    </clipPath>
    <clipPath
       id="clipPath59714"
       clipPathUnits="userSpaceOnUse">
      <path
         inkscape:connector-curvature="0"
         id="path59716"
         d="m 1285,0 5356,0 0,9410 -5356,0 0,-9410" />
    </clipPath>
    <clipPath
       id="clipPath59726"
       clipPathUnits="userSpaceOnUse">
      <path
         inkscape:connector-curvature="0"
         id="path59728"
         d="m 1285,0 5356,0 0,9410 -5356,0 0,-9410" />
    </clipPath>
    <clipPath
       id="clipPath66596"
       clipPathUnits="userSpaceOnUse">
      <path
         inkscape:connector-curvature="0"
         id="path66598"
         d="m 1285,0 5356,0 0,9410 -5356,0 0,-9410" />
    </clipPath>
    <clipPath
       id="clipPath66608"
       clipPathUnits="userSpaceOnUse">
      <path
         inkscape:connector-curvature="0"
         id="path66610"
         d="m 1285,0 5356,0 0,9410 -5356,0 0,-9410" />
    </clipPath>
    <clipPath
       id="clipPath67504"
       clipPathUnits="userSpaceOnUse">
      <path
         inkscape:connector-curvature="0"
         id="path67506"
         d="m 99,0 6543,0 0,9411 L 99,9411 99,0" />
    </clipPath>
    <clipPath
       id="clipPath67560"
       clipPathUnits="userSpaceOnUse">
      <path
         inkscape:connector-curvature="0"
         id="path67562"
         d="m 99,0 6543,0 0,9411 L 99,9411 99,0" />
    </clipPath>
    <clipPath
       id="clipPath67572"
       clipPathUnits="userSpaceOnUse">
      <path
         inkscape:connector-curvature="0"
         id="path67574"
         d="m 99,0 6543,0 0,9411 L 99,9411 99,0" />
    </clipPath>
    <clipPath
       id="clipPath67602"
       clipPathUnits="userSpaceOnUse">
      <path
         inkscape:connector-curvature="0"
         id="path67604"
         d="m 99,0 6543,0 0,9411 L 99,9411 99,0" />
    </clipPath>
    <clipPath
       id="clipPath67610"
       clipPathUnits="userSpaceOnUse">
      <path
         inkscape:connector-curvature="0"
         id="path67612"
         d="m 99,0 6543,0 0,9411 L 99,9411 99,0" />
    </clipPath>
    <clipPath
       id="clipPath67662"
       clipPathUnits="userSpaceOnUse">
      <path
         inkscape:connector-curvature="0"
         id="path67664"
         d="m 99,0 6543,0 0,9411 L 99,9411 99,0" />
    </clipPath>
    <clipPath
       id="clipPath67674"
       clipPathUnits="userSpaceOnUse">
      <path
         inkscape:connector-curvature="0"
         id="path67676"
         d="m 99,0 6543,0 0,9411 L 99,9411 99,0" />
    </clipPath>
    <marker
       inkscape:stockid="Arrow2Send"
       orient="auto"
       refY="0"
       refX="0"
       id="Arrow2Send"
       style="overflow:visible">
      <path
         inkscape:connector-curvature="0"
         id="path17136"
         style="fill-rule:evenodd;stroke-width:0.625;stroke-linejoin:round"
         d="M 8.7185878,4.0337352 -2.2072895,0.01601326 8.7185884,-4.0017078 c -1.7454984,2.3720609 -1.7354408,5.6174519 -6e-7,8.035443 z"
         transform="matrix(-0.3,0,0,-0.3,0.69,0)" />
    </marker>
    <marker
       inkscape:stockid="Arrow2Send"
       orient="auto"
       refY="0"
       refX="0"
       id="marker18005"
       style="overflow:visible">
      <path
         inkscape:connector-curvature="0"
         id="path18007"
         style="fill-rule:evenodd;stroke-width:0.625;stroke-linejoin:round"
         d="M 8.7185878,4.0337352 -2.2072895,0.01601326 8.7185884,-4.0017078 c -1.7454984,2.3720609 -1.7354408,5.6174519 -6e-7,8.035443 z"
         transform="matrix(-0.3,0,0,-0.3,0.69,0)" />
    </marker>
  </defs>
  <sodipodi:namedview
     id="base"
     pagecolor="#ffffff"
     bordercolor="#666666"
     borderopacity="1.0"
     inkscape:pageopacity="0.0"
     inkscape:pageshadow="2"
     inkscape:zoom="1.3005352"
     inkscape:cx="362.62806"
     inkscape:cy="779.64613"
     inkscape:document-units="px"
     inkscape:current-layer="layer1"
     showgrid="false"
     inkscape:window-width="1440"
     inkscape:window-height="852"
     inkscape:window-x="0"
     inkscape:window-y="25"
     inkscape:window-maximized="1" />
  <metadata
     id="metadata20405">
    <rdf:RDF>
      <cc:Work
         rdf:about="">
        <dc:format>image/svg+xml</dc:format>
        <dc:type
           rdf:resource="http://purl.org/dc/dcmitype/StillImage" />
        <dc:title />
      </cc:Work>
    </rdf:RDF>
  </metadata>
  <g
     inkscape:label="Layer 1"
     inkscape:groupmode="layer"
     id="layer1">
    <path
       style="fill:none;stroke:#000000;stroke-width:2.10505319px;stroke-linecap:butt;stroke-linejoin:miter;stroke-opacity:1"
       d="m 136.45646,461.47445 0,-130.06222 -63.903392,0 0,-244.336506 134.573032,0 0,-36.08663 54.88174,0 0,26.313163 -15.78789,0 0,311.998933 9.77344,0 0,65.40701 0,47.36369 6.01445,0 0,158.6308 -116.52973,0 0,-157.87898 -65.407013,0 0,-60.14438"
       id="path11256"
       inkscape:connector-curvature="0" />
    <path
       style="fill:none;stroke:#000000;stroke-width:2.10505319px;stroke-linecap:butt;stroke-linejoin:miter;stroke-opacity:1"
       d="m 255.24159,424.63602 51.87453,0 0,-235.31485 344.32652,0 0,348.08555 -344.32652,-0.3759 0,-35.71073 -44.35648,0.7518"
       id="path11258"
       inkscape:connector-curvature="0"
       sodipodi:nodetypes="cccccccc" />
    <path
       style="fill:none;stroke:#000000;stroke-width:2.10505319px;stroke-linecap:butt;stroke-linejoin:miter;stroke-opacity:1"
       d="m 307.1161,424.63602 0,77.43587"
       id="path11260"
       inkscape:connector-curvature="0" />
    <path
       sodipodi:end="1.571222"
       sodipodi:start="0"
       transform="matrix(2.2917317,0,0,-2.2917317,-831.08393,923.19363)"
       d="m 640.68922,320.63293 a 5.9346461,5.9346461 0 0 1 -5.93717,5.93465 l 0.003,-5.93465 z"
       sodipodi:ry="5.9346461"
       sodipodi:rx="5.9346461"
       sodipodi:cy="320.63293"
       sodipodi:cx="634.75458"
       id="path15747"
       style="fill:none;stroke:#000000;stroke-width:0.5;stroke-miterlimit:4;stroke-opacity:1;stroke-dasharray:none;display:inline"
       sodipodi:type="arc" />
    <path
       sodipodi:type="arc"
       style="fill:none;stroke:#000000;stroke-width:0.5;stroke-miterlimit:4;stroke-opacity:1;stroke-dasharray:none;display:inline"
       id="path11269"
       sodipodi:cx="634.75458"
       sodipodi:cy="320.63293"
       sodipodi:rx="5.9346461"
       sodipodi:ry="5.9346461"
       d="m 640.68922,320.63293 a 5.9346461,5.9346461 0 0 1 -5.93717,5.93465 l 0.003,-5.93465 z"
       transform="matrix(-2.2917317,0,0,-2.2917317,2105.6435,923.19363)"
       sodipodi:start="0"
       sodipodi:end="1.571222" />
    <path
       sodipodi:end="1.571222"
       sodipodi:start="0"
       transform="matrix(-2.8174982,0,0,-2.8174982,2093.7893,1365.4475)"
       d="m 640.68922,320.63293 a 5.9346461,5.9346461 0 0 1 -5.93717,5.93465 l 0.003,-5.93465 z"
       sodipodi:ry="5.9346461"
       sodipodi:rx="5.9346461"
       sodipodi:cy="320.63293"
       sodipodi:cx="634.75458"
       id="path11271"
       style="fill:none;stroke:#000000;stroke-width:0.5;stroke-miterlimit:4;stroke-opacity:1;stroke-dasharray:none;display:inline"
       sodipodi:type="arc" />
    <path
       sodipodi:type="arc"
       style="fill:none;stroke:#000000;stroke-width:0.5;stroke-miterlimit:4;stroke-opacity:1;stroke-dasharray:none;display:inline"
       id="path11273"
       sodipodi:cx="634.75458"
       sodipodi:cy="320.63293"
       sodipodi:rx="5.9346461"
       sodipodi:ry="5.9346461"
       d="m 640.68922,320.63293 a 5.9346461,5.9346461 0 0 1 -5.93717,5.93465 l 0.003,-5.93465 z"
       transform="matrix(-2.8174982,0,0,2.8174982,2093.7893,-476.75871)"
       sodipodi:start="0"
       sodipodi:end="1.571222" />
    <path
       sodipodi:type="arc"
       style="fill:none;stroke:#000000;stroke-width:0.5;stroke-miterlimit:4;stroke-opacity:1;stroke-dasharray:none;display:inline"
       id="path11275"
       sodipodi:cx="634.75458"
       sodipodi:cy="320.63293"
       sodipodi:rx="5.9346461"
       sodipodi:ry="5.9346461"
       d="m 640.68922,320.63293 a 5.9346461,5.9346461 0 0 1 -5.93717,5.93465 l 0.003,-5.93465 z"
       transform="matrix(-2.8174982,0,0,2.8174982,2093.7893,-438.86776)"
       sodipodi:start="0"
       sodipodi:end="1.571222" />
    <path
       sodipodi:end="1.571222"
       sodipodi:start="0"
       transform="matrix(-2.8174982,0,0,-2.8174982,2093.7893,1403.3384)"
       d="m 640.68922,320.63293 a 5.9346461,5.9346461 0 0 1 -5.93717,5.93465 l 0.003,-5.93465 z"
       sodipodi:ry="5.9346461"
       sodipodi:rx="5.9346461"
       sodipodi:cy="320.63293"
       sodipodi:cx="634.75458"
       id="path11277"
       style="fill:none;stroke:#000000;stroke-width:0.5;stroke-miterlimit:4;stroke-opacity:1;stroke-dasharray:none;display:inline"
       sodipodi:type="arc" />
    <path
       sodipodi:type="arc"
       style="fill:none;stroke:#000000;stroke-width:0.5;stroke-miterlimit:4;stroke-opacity:1;stroke-dasharray:none;display:inline"
       id="path11279"
       sodipodi:cx="634.75458"
       sodipodi:cy="320.63293"
       sodipodi:rx="5.9346461"
       sodipodi:ry="5.9346461"
       d="m 640.68922,320.63293 a 5.9346461,5.9346461 0 0 1 -5.93717,5.93465 l 0.003,-5.93465 z"
       transform="matrix(2.8174982,0,0,-2.8174982,-1531.1145,1365.4475)"
       sodipodi:start="0"
       sodipodi:end="1.571222" />
    <path
       sodipodi:end="1.571222"
       sodipodi:start="0"
       transform="matrix(2.8174982,0,0,2.8174982,-1531.1145,-476.75871)"
       d="m 640.68922,320.63293 a 5.9346461,5.9346461 0 0 1 -5.93717,5.93465 l 0.003,-5.93465 z"
       sodipodi:ry="5.9346461"
       sodipodi:rx="5.9346461"
       sodipodi:cy="320.63293"
       sodipodi:cx="634.75458"
       id="path11281"
       style="fill:none;stroke:#000000;stroke-width:0.5;stroke-miterlimit:4;stroke-opacity:1;stroke-dasharray:none;display:inline"
       sodipodi:type="arc" />
    <path
       sodipodi:end="1.571222"
       sodipodi:start="0"
       transform="matrix(2.8174982,0,0,2.8174982,-1531.1145,-438.86776)"
       d="m 640.68922,320.63293 a 5.9346461,5.9346461 0 0 1 -5.93717,5.93465 l 0.003,-5.93465 z"
       sodipodi:ry="5.9346461"
       sodipodi:rx="5.9346461"
       sodipodi:cy="320.63293"
       sodipodi:cx="634.75458"
       id="path11283"
       style="fill:none;stroke:#000000;stroke-width:0.5;stroke-miterlimit:4;stroke-opacity:1;stroke-dasharray:none;display:inline"
       sodipodi:type="arc" />
    <path
       sodipodi:type="arc"
       style="fill:none;stroke:#000000;stroke-width:0.5;stroke-miterlimit:4;stroke-opacity:1;stroke-dasharray:none;display:inline"
       id="path11285"
       sodipodi:cx="634.75458"
       sodipodi:cy="320.63293"
       sodipodi:rx="5.9346461"
       sodipodi:ry="5.9346461"
       d="m 640.68922,320.63293 a 5.9346461,5.9346461 0 0 1 -5.93717,5.93465 l 0.003,-5.93465 z"
       transform="matrix(2.8174982,0,0,-2.8174982,-1531.1145,1403.3384)"
       sodipodi:start="0"
       sodipodi:end="1.571222" />
    <path
       sodipodi:type="arc"
       style="fill:none;stroke:#000000;stroke-width:0.5;stroke-miterlimit:4;stroke-opacity:1;stroke-dasharray:none;display:inline"
       id="path11287"
       sodipodi:cx="634.75458"
       sodipodi:cy="320.63293"
       sodipodi:rx="5.9346461"
       sodipodi:ry="5.9346461"
       d="m 640.68922,320.63293 a 5.9346461,5.9346461 0 0 1 -5.93717,5.93465 l 0.003,-5.93465 z"
       transform="matrix(-2.4045792,0,0,-2.4045792,1606.7945,1271.0462)"
       sodipodi:start="0"
       sodipodi:end="1.571222" />
    <path
       sodipodi:end="1.571222"
       sodipodi:start="0"
       transform="matrix(-2.4045792,0,0,2.4045792,1606.7945,-301.17506)"
       d="m 640.68922,320.63293 a 5.9346461,5.9346461 0 0 1 -5.93717,5.93465 l 0.003,-5.93465 z"
       sodipodi:ry="5.9346461"
       sodipodi:rx="5.9346461"
       sodipodi:cy="320.63293"
       sodipodi:cx="634.75458"
       id="path11289"
       style="fill:none;stroke:#000000;stroke-width:0.5;stroke-miterlimit:4;stroke-opacity:1;stroke-dasharray:none;display:inline"
       sodipodi:type="arc" />
    <path
       sodipodi:type="arc"
       style="fill:none;stroke:#000000;stroke-width:0.5;stroke-miterlimit:4;stroke-opacity:1;stroke-dasharray:none;display:inline"
       id="path11291"
       sodipodi:cx="634.75458"
       sodipodi:cy="320.63293"
       sodipodi:rx="5.9346461"
       sodipodi:ry="5.9346461"
       d="m 640.68922,320.63293 a 5.9346461,5.9346461 0 0 1 -5.93717,5.93465 l 0.003,-5.93465 z"
       transform="matrix(2.8174982,0,0,2.8174982,-1581.1469,-850.92655)"
       sodipodi:start="0"
       sodipodi:end="1.571222" />
    <path
       sodipodi:end="1.571222"
       sodipodi:start="0"
       transform="matrix(2.8174982,0,0,2.8174982,-1562.9774,-850.92655)"
       d="m 640.68922,320.63293 a 5.9346461,5.9346461 0 0 1 -5.93717,5.93465 l 0.003,-5.93465 z"
       sodipodi:ry="5.9346461"
       sodipodi:rx="5.9346461"
       sodipodi:cy="320.63293"
       sodipodi:cx="634.75458"
       id="path11293"
       style="fill:none;stroke:#000000;stroke-width:0.5;stroke-miterlimit:4;stroke-opacity:1;stroke-dasharray:none;display:inline"
       sodipodi:type="arc" />
    <path
       sodipodi:type="arc"
       style="fill:none;stroke:#000000;stroke-width:0.5;stroke-miterlimit:4;stroke-opacity:1;stroke-dasharray:none;display:inline"
       id="path11295"
       sodipodi:cx="634.75458"
       sodipodi:cy="320.63293"
       sodipodi:rx="5.9346461"
       sodipodi:ry="5.9346461"
       d="m 640.68922,320.63293 a 5.9346461,5.9346461 0 0 1 -5.93717,5.93465 l 0.003,-5.93465 z"
       transform="matrix(-2.8174982,0,0,2.8174982,2049.2775,-850.92655)"
       sodipodi:start="0"
       sodipodi:end="1.571222" />
    <path
       sodipodi:end="1.571222"
       sodipodi:start="0"
       transform="matrix(-2.8174982,0,0,2.8174982,2050.8727,-815.38509)"
       d="m 640.68922,320.63293 a 5.9346461,5.9346461 0 0 1 -5.93717,5.93465 l 0.003,-5.93465 z"
       sodipodi:ry="5.9346461"
       sodipodi:rx="5.9346461"
       sodipodi:cy="320.63293"
       sodipodi:cx="634.75458"
       id="path11297"
       style="fill:none;stroke:#000000;stroke-width:0.5;stroke-miterlimit:4;stroke-opacity:1;stroke-dasharray:none;display:inline"
       sodipodi:type="arc" />
    <path
       sodipodi:type="arc"
       style="fill:none;stroke:#000000;stroke-width:0.75131905;stroke-miterlimit:4;stroke-opacity:1;stroke-dasharray:none;display:inline"
       id="path11299"
       sodipodi:cx="634.75458"
       sodipodi:cy="320.63293"
       sodipodi:rx="5.9346461"
       sodipodi:ry="5.9346461"
       d="m 640.68922,320.63293 a 5.9346461,5.9346461 0 0 1 -5.93717,5.93465 l 0.003,-5.93465 z"
       transform="matrix(1.9612668,0,0,-1.9612668,-591.51238,1126.7396)"
       sodipodi:start="0"
       sodipodi:end="1.571222" />
    <path
       sodipodi:end="1.571222"
       sodipodi:start="0"
       transform="matrix(0,2.9524022,2.9524022,0,-294.46832,-1406.4688)"
       d="m 640.68922,320.63293 a 5.9346461,5.9346461 0 0 1 -5.93717,5.93465 l 0.003,-5.93465 z"
       sodipodi:ry="5.9346461"
       sodipodi:rx="5.9346461"
       sodipodi:cy="320.63293"
       sodipodi:cx="634.75458"
       id="path11301"
       style="fill:none;stroke:#000000;stroke-width:0.4998107;stroke-miterlimit:4;stroke-opacity:1;stroke-dasharray:none;display:inline"
       sodipodi:type="arc" />
    <path
       sodipodi:type="arc"
       style="fill:none;stroke:#000000;stroke-width:0.5;stroke-miterlimit:4;stroke-opacity:1;stroke-dasharray:none;display:inline"
       id="path12071"
       sodipodi:cx="634.75458"
       sodipodi:cy="320.63293"
       sodipodi:rx="5.9346461"
       sodipodi:ry="5.9346461"
       d="m 640.68922,320.63293 a 5.9346461,5.9346461 0 0 1 -5.93717,5.93465 l 0.003,-5.93465 z"
       transform="matrix(3.167278,0,0,3.167278,-1786.2395,-353.05628)"
       sodipodi:start="0"
       sodipodi:end="1.571222" />
    <path
       sodipodi:end="1.571222"
       sodipodi:start="0"
       transform="matrix(-3.167278,0,0,3.167278,2234.5068,-353.05628)"
       d="m 640.68922,320.63293 a 5.9346461,5.9346461 0 0 1 -5.93717,5.93465 l 0.003,-5.93465 z"
       sodipodi:ry="5.9346461"
       sodipodi:rx="5.9346461"
       sodipodi:cy="320.63293"
       sodipodi:cx="634.75458"
       id="path12073"
       style="fill:none;stroke:#000000;stroke-width:0.5;stroke-miterlimit:4;stroke-opacity:1;stroke-dasharray:none;display:inline"
       sodipodi:type="arc" />
    <path
       sodipodi:type="arc"
       style="fill:none;stroke:#000000;stroke-width:0.5;stroke-miterlimit:4;stroke-opacity:1;stroke-dasharray:none;display:inline"
       id="path12075"
       sodipodi:cx="634.75458"
       sodipodi:cy="320.63293"
       sodipodi:rx="5.9346461"
       sodipodi:ry="5.9346461"
       d="m 640.68922,320.63293 a 5.9346461,5.9346461 0 0 1 -5.93717,5.93465 l 0.003,-5.93465 z"
       transform="matrix(-3.167278,0,0,3.167278,2195.5993,-353.05628)"
       sodipodi:start="0"
       sodipodi:end="1.571222" />
    <path
       sodipodi:end="1.571222"
       sodipodi:start="0"
       transform="matrix(3.167278,0,0,3.167278,-1825.1469,-353.05628)"
       d="m 640.68922,320.63293 a 5.9346461,5.9346461 0 0 1 -5.93717,5.93465 l 0.003,-5.93465 z"
       sodipodi:ry="5.9346461"
       sodipodi:rx="5.9346461"
       sodipodi:cy="320.63293"
       sodipodi:cx="634.75458"
       id="path12077"
       style="fill:none;stroke:#000000;stroke-width:0.5;stroke-miterlimit:4;stroke-opacity:1;stroke-dasharray:none;display:inline"
       sodipodi:type="arc" />
    <path
       sodipodi:type="arc"
       style="fill:none;stroke:#000000;stroke-width:0.5;stroke-miterlimit:4;stroke-opacity:1;stroke-dasharray:none;display:inline"
       id="path12079"
       sodipodi:cx="634.75458"
       sodipodi:cy="320.63293"
       sodipodi:rx="5.9346461"
       sodipodi:ry="5.9346461"
       d="m 640.68922,320.63293 a 5.9346461,5.9346461 0 0 1 -5.93717,5.93465 l 0.003,-5.93465 z"
       transform="matrix(3.167278,0,0,3.167278,-1863.0379,-353.05628)"
       sodipodi:start="0"
       sodipodi:end="1.571222" />
    <path
       sodipodi:type="arc"
       style="fill:none;stroke:#000000;stroke-width:0.5;stroke-miterlimit:4;stroke-opacity:1;stroke-dasharray:none;display:inline"
       id="path12081"
       sodipodi:cx="634.75458"
       sodipodi:cy="320.63293"
       sodipodi:rx="5.9346461"
       sodipodi:ry="5.9346461"
       d="m 640.68922,320.63293 a 5.9346461,5.9346461 0 0 1 -5.93717,5.93465 l 0.003,-5.93465 z"
       transform="matrix(-3.6436604,0,0,-3.6436604,2384.5556,1459.852)"
       sodipodi:start="0"
       sodipodi:end="1.571222" />
    <path
       sodipodi:end="1.571222"
       sodipodi:start="0"
       transform="matrix(-3.6436604,0,0,3.6436604,2384.5556,-919.37736)"
       d="m 640.68922,320.63293 a 5.9346461,5.9346461 0 0 1 -5.93717,5.93465 l 0.003,-5.93465 z"
       sodipodi:ry="5.9346461"
       sodipodi:rx="5.9346461"
       sodipodi:cy="320.63293"
       sodipodi:cx="634.75458"
       id="path12083"
       style="fill:none;stroke:#000000;stroke-width:0.5;stroke-miterlimit:4;stroke-opacity:1;stroke-dasharray:none;display:inline"
       sodipodi:type="arc" />
    <path
       sodipodi:type="arc"
       style="fill:none;stroke:#000000;stroke-width:0.5;stroke-miterlimit:4;stroke-opacity:1;stroke-dasharray:none;display:inline"
       id="path12085"
       sodipodi:cx="634.75458"
       sodipodi:cy="320.63293"
       sodipodi:rx="5.9346461"
       sodipodi:ry="5.9346461"
       d="m 640.68922,320.63293 a 5.9346461,5.9346461 0 0 1 -5.93717,5.93465 l 0.003,-5.93465 z"
       transform="matrix(-3.6436604,0,0,3.6436604,2384.5556,-1049.8907)"
       sodipodi:start="0"
       sodipodi:end="1.571222" />
    <text
       xml:space="preserve"
       style="font-size:40px;font-style:normal;font-weight:normal;line-height:125%;letter-spacing:0px;word-spacing:0px;fill:#000000;fill-opacity:1;stroke:none;font-family:Sans"
       x="253.52797"
       y="247.2706"
       id="text37019"
       sodipodi:linespacing="125%"><tspan
         sodipodi:role="line"
         id="tspan37021"
         x="253.52797"
         y="247.2706"
         style="font-size:20px">Bar</tspan></text>
    <text
       sodipodi:linespacing="125%"
       id="text17974"
       y="424.63022"
       x="79.615631"
       style="font-size:34.83171082px;font-style:normal;font-weight:normal;line-height:125%;letter-spacing:0px;word-spacing:0px;fill:#000000;fill-opacity:1;stroke:none;font-family:Sans"
       xml:space="preserve"><tspan
         style="font-size:17.41585541px"
         y="424.63022"
         x="79.615631"
         id="tspan17976"
         sodipodi:role="line">Stairs</tspan></text>
    <path
       inkscape:connector-curvature="0"
       id="path17978"
       d="m 104.78221,405.59956 0,-60.69472"
       style="fill:none;stroke:#000000;stroke-width:2.61237836;stroke-linecap:butt;stroke-linejoin:miter;stroke-miterlimit:4;stroke-opacity:1;stroke-dasharray:none;marker-end:url(#Arrow2Send)" />
    <path
       style="fill:none;stroke:#000000;stroke-width:2.61237836;stroke-linecap:butt;stroke-linejoin:miter;stroke-miterlimit:4;stroke-opacity:1;stroke-dasharray:none;marker-end:url(#Arrow2Send)"
       d="m 104.78221,431.49946 0,60.69472"
       id="path17980"
       inkscape:connector-curvature="0" />
    <path
       style="fill:none;stroke:#000000;stroke-width:2;stroke-linecap:butt;stroke-linejoin:miter;stroke-opacity:1;marker-start:url(#Arrow2Sstart);marker-end:url(#marker18005);stroke-miterlimit:4;stroke-dasharray:none"
       d="m 309.28571,204.50504 339.28572,0"
       id="path37044"
       inkscape:connector-curvature="0" />
    <path
       inkscape:connector-curvature="0"
       id="path37046"
       d="m 636.92857,192.86218 0,339.28572"
       style="fill:none;stroke:#000000;stroke-width:2;stroke-linecap:butt;stroke-linejoin:miter;stroke-opacity:1;marker-start:url(#Arrow2Sstart);marker-end:url(#marker18005);stroke-miterlimit:4;stroke-dasharray:none" />
    <text
       xml:space="preserve"
       style="font-size:40px;font-style:normal;font-weight:normal;line-height:125%;letter-spacing:0px;word-spacing:0px;fill:#000000;fill-opacity:1;stroke:none;font-family:Sans"
       x="396.44064"
       y="560.25708"
       id="text38386"
       sodipodi:linespacing="125%"><tspan
         sodipodi:role="line"
         id="tspan38388"
         x="396.44064"
         y="560.25708"
         style="font-size:20px">Folded seating</tspan></text>
    <text
       xml:space="preserve"
       style="font-size:40px;font-style:normal;font-weight:normal;line-height:125%;letter-spacing:0px;word-spacing:0px;fill:#000000;fill-opacity:1;stroke:none;font-family:Sans"
       x="516.51923"
       y="149.81282"
       id="text38390"
       sodipodi:linespacing="125%"><tspan
         sodipodi:role="line"
         id="tspan38392"
         x="516.51923"
         y="149.81282"
         style="font-size:125px">L2</tspan></text>
    <path
       inkscape:connector-curvature="0"
       id="path38394"
       d="m 74.193584,100.50504 169.115666,0"
       style="fill:none;stroke:#000000;stroke-width:2;stroke-linecap:butt;stroke-linejoin:miter;stroke-miterlimit:4;stroke-opacity:1;stroke-dasharray:none;marker-start:url(#Arrow2Sstart);marker-end:url(#marker18005)" />
    <path
       style="fill:none;stroke:#000000;stroke-width:2;stroke-linecap:butt;stroke-linejoin:miter;stroke-miterlimit:4;stroke-opacity:1;stroke-dasharray:none;marker-start:url(#Arrow2Sstart);marker-end:url(#marker18005)"
       d="m 86.75142,91.023902 0,237.643848"
       id="path38396"
       inkscape:connector-curvature="0" />
    <path
       style="fill:none;stroke:#000000;stroke-width:2;stroke-linecap:butt;stroke-linejoin:miter;stroke-miterlimit:4;stroke-opacity:1;stroke-dasharray:none;marker-start:url(#Arrow2Sstart);marker-end:url(#marker18005)"
       d="m 139.16806,340.50504 104.95496,0"
       id="path38398"
       inkscape:connector-curvature="0" />
    <path
       inkscape:connector-curvature="0"
       id="path38400"
       d="m 149.24098,528.50504 108.65369,0"
       style="fill:none;stroke:#000000;stroke-width:2;stroke-linecap:butt;stroke-linejoin:miter;stroke-miterlimit:4;stroke-opacity:1;stroke-dasharray:none;marker-start:url(#Arrow2Sstart);marker-end:url(#marker18005)" />
    <path
       style="fill:none;stroke:#000000;stroke-width:2;stroke-linecap:butt;stroke-linejoin:miter;stroke-miterlimit:4;stroke-opacity:1;stroke-dasharray:none;marker-start:url(#Arrow2Sstart);marker-end:url(#marker18005)"
       d="m 159.56783,506.13991 0,149.67105"
       id="path38402"
       inkscape:connector-curvature="0" />
    <path
       style="fill:none;stroke:#000000;stroke-width:1px;stroke-linecap:butt;stroke-linejoin:miter;stroke-opacity:1"
       d="m 155.32067,503.35745 c 8.45806,0 8.45806,0 8.45806,0"
       id="path38404"
       inkscape:connector-curvature="0" />
    <text
       xml:space="preserve"
       style="font-size:40px;font-style:normal;font-weight:normal;line-height:125%;letter-spacing:0px;word-spacing:0px;fill:#000000;fill-opacity:1;stroke:none;font-family:Sans"
       x="146.70718"
       y="112.13555"
       id="text38406"
       sodipodi:linespacing="125%"><tspan
         sodipodi:role="line"
         id="tspan38408"
         x="146.70718"
         y="112.13555"
         style="font-size:12px">7.8m</tspan></text>
    <text
       sodipodi:linespacing="125%"
       id="text38410"
       y="216.13556"
       x="90.707176"
       style="font-size:40px;font-style:normal;font-weight:normal;line-height:125%;letter-spacing:0px;word-spacing:0px;fill:#000000;fill-opacity:1;stroke:none;font-family:Sans"
       xml:space="preserve"><tspan
         style="font-size:12px"
         y="216.13556"
         x="90.707176"
         id="tspan38412"
         sodipodi:role="line">11.3m</tspan></text>
    <text
       xml:space="preserve"
       style="font-size:40px;font-style:normal;font-weight:normal;line-height:125%;letter-spacing:0px;word-spacing:0px;fill:#000000;fill-opacity:1;stroke:none;font-family:Sans"
       x="175.28773"
       y="353.17828"
       id="text38414"
       sodipodi:linespacing="125%"><tspan
         sodipodi:role="line"
         id="tspan38416"
         x="175.28773"
         y="353.17828"
         style="font-size:12px">4.5m</tspan></text>
    <text
       sodipodi:linespacing="125%"
       id="text38418"
       y="524.18396"
       x="189.74167"
       style="font-size:40px;font-style:normal;font-weight:normal;line-height:125%;letter-spacing:0px;word-spacing:0px;fill:#000000;fill-opacity:1;stroke:none;font-family:Sans"
       xml:space="preserve"><tspan
         style="font-size:12px"
         y="524.18396"
         x="189.74167"
         id="tspan38420"
         sodipodi:role="line">4.5m</tspan></text>
    <text
       xml:space="preserve"
       style="font-size:40px;font-style:normal;font-weight:normal;line-height:125%;letter-spacing:0px;word-spacing:0px;fill:#000000;fill-opacity:1;stroke:none;font-family:Sans"
       x="164.52293"
       y="591.84839"
       id="text38422"
       sodipodi:linespacing="125%"><tspan
         sodipodi:role="line"
         id="tspan38424"
         x="164.52293"
         y="591.84839"
         style="font-size:12px">7.4m</tspan></text>
    <text
       sodipodi:linespacing="125%"
       id="text38426"
       y="217.38722"
       x="464.07632"
       style="font-size:40px;font-style:normal;font-weight:normal;line-height:125%;letter-spacing:0px;word-spacing:0px;fill:#000000;fill-opacity:1;stroke:none;font-family:Sans"
       xml:space="preserve"><tspan
         style="font-size:12px"
         y="217.38722"
         x="464.07632"
         id="tspan38428"
         sodipodi:role="line">16m</tspan></text>
    <text
       xml:space="preserve"
       style="font-size:40px;font-style:normal;font-weight:normal;line-height:125%;letter-spacing:0px;word-spacing:0px;fill:#000000;fill-opacity:1;stroke:none;font-family:Sans"
       x="604.32538"
       y="369.63223"
       id="text38430"
       sodipodi:linespacing="125%"><tspan
         sodipodi:role="line"
         id="tspan38432"
         x="604.32538"
         y="369.63223"
         style="font-size:12px">16m</tspan></text>
  </g>
</svg>
