999
dxfrw 0.5.11
0
SECTION
2
HEADER
9
$ACADVER
1
AC1021
9
$HANDSEED
5
20000
9
$DWGCODEPAGE
3
ANSI_1252
9
$INSBASE
10
0
20
0
30
0
9
$EXTMIN
10
-20
20
-20
30
0
9
$EXTMAX
10
744
20
380
30
0
9
$LIMMIN
10
0
20
0
9
$LIMMAX
10
420
20
297
9
$ORTHOMODE
70
0
9
$LTSCALE
40
1
9
$TEXTSTYLE
7
STANDARD
9
$CLAYER
8
0
9
$DIMASZ
40
2.5
9
$DIMLFAC
40
1
9
$DIMSCALE
40
1
9
$DIMEXO
40
0.625
9
$DIMEXE
40
1.25
9
$DIMTXT
40
2.5
9
$DIMTSZ
40
0
9
$DIMAUNIT
70
0
9
$DIMADEC
70
0
9
$DIMLUNIT
70
2
9
$DIMSTYLE
2
STANDARD
9
$DIMGAP
40
0.625
9
$DIMTIH
70
0
9
$LUNITS
70
2
9
$LUPREC
70
4
9
$AUNITS
70
0
9
$AUPREC
70
2
9
$SPLINESEGS
70
8
9
$GRIDMODE
70
1
9
$SNAPSTYLE
70
0
9
$PINSBASE
10
23
20
2
30
0
9
$PLIMMIN
10
0
20
0
9
$PLIMMAX
10
790
20
384
9
$INSUNITS
70
4
9
$PSVPSCALE
40
1
0
ENDSEC
0
SECTION
2
CLASSES
0
ENDSEC
0
SECTION
2
TABLES
0
TABLE
2
VPORT
5
8
330
0
100
AcDbSymbolTable
70
1
0
VPORT
5
31
330
2
100
AcDbSymbolTableRecord
100
AcDbViewportTableRecord
2
*ACTIVE
70
0
10
0
20
0
11
1
21
1
12
434.494018554
22
194.931030273
13
0
23
0
14
10
24
10
15
10
25
10
16
0
26
0
36
1
17
0
27
0
37
0
40
416.564941406
41
2.29487179487
42
50
43
0
44
0
50
0
51
0
71
0
72
100
73
1
74
3
75
0
76
1
77
0
78
0
281
0
65
1
110
0
120
0
130
0
111
1
121
0
131
0
112
0
122
1
132
0
79
0
146
0
348
10020
60
7
61
5
292
1
282
1
141
0
142
0
63
250
421
3358443
0
ENDTAB
0
TABLE
2
LTYPE
5
5
330
0
100
AcDbSymbolTable
70
4
0
LTYPE
5
14
330
5
100
AcDbSymbolTableRecord
100
AcDbLinetypeTableRecord
2
ByBlock
70
0
3

72
65
73
0
40
0
0
LTYPE
5
15
330
5
100
AcDbSymbolTableRecord
100
AcDbLinetypeTableRecord
2
ByLayer
70
0
3

72
65
73
0
40
0
0
LTYPE
5
16
330
5
100
AcDbSymbolTableRecord
100
AcDbLinetypeTableRecord
2
Continuous
70
0
3
Solid line
72
65
73
0
40
0
0
LTYPE
5
32
330
5
100
AcDbSymbolTableRecord
100
AcDbLinetypeTableRecord
2
DOT
70
0
3
Dot . . . . . . . . . . . . . . . . . . . . . .
72
65
73
2
40
6.35
49
0
74
0
49
-6.35
74
0
0
LTYPE
5
33
330
5
100
AcDbSymbolTableRecord
100
AcDbLinetypeTableRecord
2
DOT2
70
0
3
Dot (.5x) .....................................
72
65
73
2
40
3.175
49
0
74
0
49
-3.175
74
0
0
LTYPE
5
34
330
5
100
AcDbSymbolTableRecord
100
AcDbLinetypeTableRecord
2
DOTX2
70
0
3
Dot (2x) .  .  .  .  .  .  .  .  .  .  .  .  .
72
65
73
2
40
12.7
49
0
74
0
49
-12.7
74
0
0
LTYPE
5
35
330
5
100
AcDbSymbolTableRecord
100
AcDbLinetypeTableRecord
2
DASHED
70
0
3
Dot . . . . . . . . . . . . . . . . . . . . . .
72
65
73
2
40
19.05
49
12.7
74
0
49
-6.35
74
0
0
LTYPE
5
36
330
5
100
AcDbSymbolTableRecord
100
AcDbLinetypeTableRecord
2
DASHED2
70
0
3
Dashed (.5x) _ _ _ _ _ _ _ _ _ _ _ _ _ _ _ _ _
72
65
73
2
40
9.525
49
6.35
74
0
49
-3.175
74
0
0
LTYPE
5
37
330
5
100
AcDbSymbolTableRecord
100
AcDbLinetypeTableRecord
2
DASHEDX2
70
0
3
Dashed (2x) ____  ____  ____  ____  ____  ___
72
65
73
2
40
38.1
49
25.4
74
0
49
-12.7
74
0
0
LTYPE
5
38
330
5
100
AcDbSymbolTableRecord
100
AcDbLinetypeTableRecord
2
DASHDOT
70
0
3
Dash dot __ . __ . __ . __ . __ . __ . __ . __
72
65
73
4
40
25.4
49
12.7
74
0
49
-6.35
74
0
49
0
74
0
49
-6.35
74
0
0
LTYPE
5
39
330
5
100
AcDbSymbolTableRecord
100
AcDbLinetypeTableRecord
2
DASHDOT2
70
0
3
Dash dot (.5x) _._._._._._._._._._._._._._._.
72
65
73
4
40
12.7
49
6.35
74
0
49
-3.175
74
0
49
0
74
0
49
-3.175
74
0
0
LTYPE
5
3A
330
5
100
AcDbSymbolTableRecord
100
AcDbLinetypeTableRecord
2
DASHDOTX2
70
0
3
Dash dot (2x) ____  .  ____  .  ____  .  ___
72
65
73
4
40
50.8
49
25.4
74
0
49
-12.7
74
0
49
0
74
0
49
-12.7
74
0
0
LTYPE
5
3B
330
5
100
AcDbSymbolTableRecord
100
AcDbLinetypeTableRecord
2
DIVIDE
70
0
3
Divide ____ . . ____ . . ____ . . ____ . . ____
72
65
73
6
40
31.75
49
12.7
74
0
49
-6.35
74
0
49
0
74
0
49
-6.35
74
0
49
0
74
0
49
-6.35
74
0
0
LTYPE
5
3C
330
5
100
AcDbSymbolTableRecord
100
AcDbLinetypeTableRecord
2
DIVIDE2
70
0
3
Divide (.5x) __..__..__..__..__..__..__..__.._
72
65
73
6
40
15.875
49
6.35
74
0
49
-3.175
74
0
49
0
74
0
49
-3.175
74
0
49
0
74
0
49
-3.175
74
0
0
LTYPE
5
3D
330
5
100
AcDbSymbolTableRecord
100
AcDbLinetypeTableRecord
2
DIVIDEX2
70
0
3
Divide (2x) ________  .  .  ________  .  .  _
72
65
73
6
40
63.5
49
25.4
74
0
49
-12.7
74
0
49
0
74
0
49
-12.7
74
0
49
0
74
0
49
-12.7
74
0
0
LTYPE
5
3E
330
5
100
AcDbSymbolTableRecord
100
AcDbLinetypeTableRecord
2
BORDER
70
0
3
Border __ __ . __ __ . __ __ . __ __ . __ __ .
72
65
73
6
40
44.45
49
12.7
74
0
49
-6.35
74
0
49
12.7
74
0
49
-6.35
74
0
49
0
74
0
49
-6.35
74
0
0
LTYPE
5
3F
330
5
100
AcDbSymbolTableRecord
100
AcDbLinetypeTableRecord
2
BORDER2
70
0
3
Border (.5x) __.__.__.__.__.__.__.__.__.__.__.
72
65
73
6
40
22.225
49
6.35
74
0
49
-3.175
74
0
49
6.35
74
0
49
-3.175
74
0
49
0
74
0
49
-3.175
74
0
0
LTYPE
5
40
330
5
100
AcDbSymbolTableRecord
100
AcDbLinetypeTableRecord
2
BORDERX2
70
0
3
Border (2x) ____  ____  .  ____  ____  .  ___
72
65
73
6
40
88.9
49
25.4
74
0
49
-12.7
74
0
49
25.4
74
0
49
-12.7
74
0
49
0
74
0
49
-12.7
74
0
0
LTYPE
5
41
330
5
100
AcDbSymbolTableRecord
100
AcDbLinetypeTableRecord
2
CENTER
70
0
3
Center ____ _ ____ _ ____ _ ____ _ ____ _ ____
72
65
73
4
40
50.8
49
31.75
74
0
49
-6.35
74
0
49
6.35
74
0
49
-6.35
74
0
0
LTYPE
5
42
330
5
100
AcDbSymbolTableRecord
100
AcDbLinetypeTableRecord
2
CENTER2
70
0
3
Center (.5x) ___ _ ___ _ ___ _ ___ _ ___ _ ___
72
65
73
4
40
28.575
49
19.05
74
0
49
-3.175
74
0
49
3.175
74
0
49
-3.175
74
0
0
LTYPE
5
43
330
5
100
AcDbSymbolTableRecord
100
AcDbLinetypeTableRecord
2
CENTERX2
70
0
3
Center (2x) ________  __  ________  __  _____
72
65
73
4
40
101.6
49
63.5
74
0
49
-12.7
74
0
49
12.7
74
0
49
-12.7
74
0
0
ENDTAB
0
TABLE
2
LAYER
5
2
330
0
100
AcDbSymbolTable
70
1
0
LAYER
5
10
330
2
100
AcDbSymbolTableRecord
100
AcDbLayerTableRecord
2
0
70
0
62
5
6
CONTINUOUS
370
0
390
F
0
ENDTAB
0
TABLE
2
STYLE
5
3
330
0
100
AcDbSymbolTable
70
3
0
STYLE
5
44
330
2
100
AcDbSymbolTableRecord
100
AcDbTextStyleTableRecord
2
Standard
70
0
40
0
41
1
50
0
71
0
42
1
3
txt
4

0
ENDTAB
0
TABLE
2
VIEW
5
6
330
0
100
AcDbSymbolTable
70
0
0
ENDTAB
0
TABLE
2
UCS
5
7
330
0
100
AcDbSymbolTable
70
0
0
ENDTAB
0
TABLE
2
APPID
5
9
330
0
100
AcDbSymbolTable
70
1
0
APPID
5
12
330
9
100
AcDbSymbolTableRecord
100
AcDbRegAppTableRecord
2
ACAD
70
0
0
ENDTAB
0
TABLE
2
DIMSTYLE
5
A
330
0
100
AcDbSymbolTable
70
1
100
AcDbDimStyleTable
71
1
0
DIMSTYLE
105
45
330
A
100
AcDbSymbolTableRecord
100
AcDbDimStyleTableRecord
2
Standard
70
0
40
1
41
2.5
42
0.625
43
0.38
44
1.25
45
0
46
0
47
0
48
0
140
2.5
141
0.09
142
0
143
25.4
144
1
145
0
146
1
147
0.625
148
0
71
0
72
0
73
0
74
1
75
0
76
0
77
0
78
0
79
0
170
0
171
2
172
0
173
0
174
0
175
0
176
0
177
0
178
0
179
0
271
4
272
4
273
2
274
2
275
0
276
0
277
2
278
46
279
0
280
0
281
0
282
0
283
1
284
0
285
0
286
0
288
0
289
3
340
Standard
341

371
-2
372
-2
0
ENDTAB
0
TABLE
2
BLOCK_RECORD
5
1
330
0
100
AcDbSymbolTable
70
2
0
BLOCK_RECORD
5
1F
330
1
100
AcDbSymbolTableRecord
100
AcDbBlockTableRecord
2
*Model_Space
70
0
280
1
281
0
0
BLOCK_RECORD
5
1E
330
1
100
AcDbSymbolTableRecord
100
AcDbBlockTableRecord
2
*Paper_Space
70
0
280
1
281
0
0
ENDTAB
0
ENDSEC
0
SECTION
2
BLOCKS
0
BLOCK
5
20
330
1F
100
AcDbEntity
8
0
100
AcDbBlockBegin
2
*Model_Space
70
0
10
0
20
0
30
0
3
*Model_Space
1

0
ENDBLK
5
21
330
1F
100
AcDbEntity
8
0
100
AcDbBlockEnd
0
BLOCK
5
1C
330
1B
100
AcDbEntity
8
0
100
AcDbBlockBegin
2
*Paper_Space
70
0
10
0
20
0
30
0
3
*Paper_Space
1

0
ENDBLK
5
1D
330
1F
100
AcDbEntity
8
0
100
AcDbBlockEnd
0
ENDSEC
0
SECTION
2
ENTITIES
0
LINE
5
46
100
AcDbEntity
8
0
6
ByLayer
62
256
370
-1
100
AcDbLine
10
494
20
250
11
494
21
225
0
LINE
5
47
100
AcDbEntity
8
0
6
ByLayer
62
256
370
-1
100
AcDbLine
10
494
20
225
11
497
21
225
0
LINE
5
48
100
AcDbEntity
8
0
6
ByLayer
62
256
370
-1
100
AcDbLine
10
497
20
200
11
494
21
200
0
LINE
5
49
100
AcDbEntity
8
0
6
ByLayer
62
256
370
-1
100
AcDbLine
10
494
20
200
11
494
21
175
0
LINE
5
4A
100
AcDbEntity
8
0
6
ByLayer
62
256
370
-1
100
AcDbLine
10
494
20
175
11
497
21
175
0
LINE
5
4B
100
AcDbEntity
8
0
6
ByLayer
62
256
370
-1
100
AcDbLine
10
497
20
150
11
494
21
150
0
LINE
5
4C
100
AcDbEntity
8
0
6
ByLayer
62
256
370
-1
100
AcDbLine
10
494
20
150
11
494
21
125
0
LINE
5
4D
100
AcDbEntity
8
0
6
ByLayer
62
256
370
-1
100
AcDbLine
10
494
20
125
11
497
21
125
0
LINE
5
4E
100
AcDbEntity
8
0
6
ByLayer
62
256
370
-1
100
AcDbLine
10
497
20
100
11
494
21
100
0
LINE
5
4F
100
AcDbEntity
8
0
6
ByLayer
62
256
370
-1
100
AcDbLine
10
494
20
100
11
494
21
75
0
LINE
5
50
100
AcDbEntity
8
0
6
ByLayer
62
256
370
-1
100
AcDbLine
10
494
20
75
11
497
21
75
0
LINE
5
51
100
AcDbEntity
8
0
6
ByLayer
62
256
370
-1
100
AcDbLine
10
497
20
50
11
494
21
50
0
LINE
5
52
100
AcDbEntity
8
0
6
ByLayer
62
256
370
-1
100
AcDbLine
10
494
20
50
11
494
21
25
0
LINE
5
53
100
AcDbEntity
8
0
6
ByLayer
62
256
370
-1
100
AcDbLine
10
494
20
25
11
497
21
25
0
LINE
5
54
100
AcDbEntity
8
0
6
ByLayer
62
256
370
-1
100
AcDbLine
10
497
20
50
11
497
21
75
0
LINE
5
55
100
AcDbEntity
8
0
6
ByLayer
62
256
370
-1
100
AcDbLine
10
497
20
100
11
497
21
125
0
LINE
5
56
100
AcDbEntity
8
0
6
ByLayer
62
256
370
-1
100
AcDbLine
10
497
20
150
11
497
21
175
0
LINE
5
57
100
AcDbEntity
8
0
6
ByLayer
62
256
370
-1
100
AcDbLine
10
497
20
200
11
497
21
225
0
LINE
5
58
100
AcDbEntity
8
0
6
ByLayer
62
256
370
-1
100
AcDbLine
10
497
20
3
11
497
21
25
0
LINE
5
59
100
AcDbEntity
8
0
6
ByLayer
62
256
370
-1
100
AcDbLine
10
741
20
225
11
744
21
225
0
LINE
5
5A
100
AcDbEntity
8
0
6
ByLayer
62
256
370
-1
100
AcDbLine
10
744
20
200
11
741
21
200
0
LINE
5
5B
100
AcDbEntity
8
0
6
ByLayer
62
256
370
-1
100
AcDbLine
10
741
20
200
11
741
21
175
0
LINE
5
5C
100
AcDbEntity
8
0
6
ByLayer
62
256
370
-1
100
AcDbLine
10
741
20
175
11
744
21
175
0
LINE
5
5D
100
AcDbEntity
8
0
6
ByLayer
62
256
370
-1
100
AcDbLine
10
744
20
150
11
741
21
150
0
LINE
5
5E
100
AcDbEntity
8
0
6
ByLayer
62
256
370
-1
100
AcDbLine
10
741
20
150
11
741
21
125
0
LINE
5
5F
100
AcDbEntity
8
0
6
ByLayer
62
256
370
-1
100
AcDbLine
10
741
20
125
11
744
21
125
0
LINE
5
60
100
AcDbEntity
8
0
6
ByLayer
62
256
370
-1
100
AcDbLine
10
744
20
100
11
741
21
100
0
LINE
5
61
100
AcDbEntity
8
0
6
ByLayer
62
256
370
-1
100
AcDbLine
10
741
20
100
11
741
21
75
0
LINE
5
62
100
AcDbEntity
8
0
6
ByLayer
62
256
370
-1
100
AcDbLine
10
741
20
75
11
744
21
75
0
LINE
5
63
100
AcDbEntity
8
0
6
ByLayer
62
256
370
-1
100
AcDbLine
10
744
20
50
11
741
21
50
0
LINE
5
64
100
AcDbEntity
8
0
6
ByLayer
62
256
370
-1
100
AcDbLine
10
741
20
50
11
741
21
25
0
LINE
5
65
100
AcDbEntity
8
0
6
ByLayer
62
256
370
-1
100
AcDbLine
10
741
20
25
11
744
21
25
0
LINE
5
66
100
AcDbEntity
8
0
6
ByLayer
62
256
370
-1
100
AcDbLine
10
744
20
50
11
744
21
75
0
LINE
5
67
100
AcDbEntity
8
0
6
ByLayer
62
256
370
-1
100
AcDbLine
10
744
20
100
11
744
21
125
0
LINE
5
68
100
AcDbEntity
8
0
6
ByLayer
62
256
370
-1
100
AcDbLine
10
744
20
150
11
744
21
175
0
LINE
5
69
100
AcDbEntity
8
0
6
ByLayer
62
256
370
-1
100
AcDbLine
10
744
20
200
11
744
21
225
0
LINE
5
6A
100
AcDbEntity
8
0
6
ByLayer
62
256
370
-1
100
AcDbLine
10
519
20
247
11
519
21
250
0
LINE
5
6B
100
AcDbEntity
8
0
6
ByLayer
62
256
370
-1
100
AcDbLine
10
544
20
250
11
544
21
247
0
LINE
5
6C
100
AcDbEntity
8
0
6
ByLayer
62
256
370
-1
100
AcDbLine
10
544
20
247
11
569
21
247
0
LINE
5
6D
100
AcDbEntity
8
0
6
ByLayer
62
256
370
-1
100
AcDbLine
10
569
20
247
11
569
21
250
0
LINE
5
6E
100
AcDbEntity
8
0
6
ByLayer
62
256
370
-1
100
AcDbLine
10
594
20
250
11
594
21
247
0
LINE
5
6F
100
AcDbEntity
8
0
6
ByLayer
62
256
370
-1
100
AcDbLine
10
594
20
247
11
619
21
247
0
LINE
5
70
100
AcDbEntity
8
0
6
ByLayer
62
256
370
-1
100
AcDbLine
10
619
20
247
11
619
21
250
0
LINE
5
71
100
AcDbEntity
8
0
6
ByLayer
62
256
370
-1
100
AcDbLine
10
644
20
250
11
644
21
247
0
LINE
5
72
100
AcDbEntity
8
0
6
ByLayer
62
256
370
-1
100
AcDbLine
10
644
20
247
11
669
21
247
0
LINE
5
73
100
AcDbEntity
8
0
6
ByLayer
62
256
370
-1
100
AcDbLine
10
669
20
247
11
669
21
250
0
LINE
5
74
100
AcDbEntity
8
0
6
ByLayer
62
256
370
-1
100
AcDbLine
10
694
20
250
11
694
21
247
0
LINE
5
75
100
AcDbEntity
8
0
6
ByLayer
62
256
370
-1
100
AcDbLine
10
694
20
247
11
719
21
247
0
LINE
5
76
100
AcDbEntity
8
0
6
ByLayer
62
256
370
-1
100
AcDbLine
10
719
20
247
11
719
21
250
0
LINE
5
77
100
AcDbEntity
8
0
6
ByLayer
62
256
370
-1
100
AcDbLine
10
694
20
250
11
669
21
250
0
LINE
5
78
100
AcDbEntity
8
0
6
ByLayer
62
256
370
-1
100
AcDbLine
10
644
20
250
11
619
21
250
0
LINE
5
79
100
AcDbEntity
8
0
6
ByLayer
62
256
370
-1
100
AcDbLine
10
594
20
250
11
569
21
250
0
LINE
5
7A
100
AcDbEntity
8
0
6
ByLayer
62
256
370
-1
100
AcDbLine
10
544
20
250
11
519
21
250
0
LINE
5
7B
100
AcDbEntity
8
0
6
ByLayer
62
256
370
-1
100
AcDbLine
10
719
20
3
11
719
21
0
0
LINE
5
7C
100
AcDbEntity
8
0
6
ByLayer
62
256
370
-1
100
AcDbLine
10
694
20
0
11
694
21
3
0
LINE
5
7D
100
AcDbEntity
8
0
6
ByLayer
62
256
370
-1
100
AcDbLine
10
694
20
3
11
669
21
3
0
LINE
5
7E
100
AcDbEntity
8
0
6
ByLayer
62
256
370
-1
100
AcDbLine
10
669
20
3
11
669
21
0
0
LINE
5
7F
100
AcDbEntity
8
0
6
ByLayer
62
256
370
-1
100
AcDbLine
10
644
20
0
11
644
21
3
0
LINE
5
80
100
AcDbEntity
8
0
6
ByLayer
62
256
370
-1
100
AcDbLine
10
644
20
3
11
619
21
3
0
LINE
5
81
100
AcDbEntity
8
0
6
ByLayer
62
256
370
-1
100
AcDbLine
10
619
20
3
11
619
21
0
0
LINE
5
82
100
AcDbEntity
8
0
6
ByLayer
62
256
370
-1
100
AcDbLine
10
594
20
0
11
594
21
3
0
LINE
5
83
100
AcDbEntity
8
0
6
ByLayer
62
256
370
-1
100
AcDbLine
10
594
20
3
11
569
21
3
0
LINE
5
84
100
AcDbEntity
8
0
6
ByLayer
62
256
370
-1
100
AcDbLine
10
569
20
3
11
569
21
0
0
LINE
5
85
100
AcDbEntity
8
0
6
ByLayer
62
256
370
-1
100
AcDbLine
10
544
20
0
11
544
21
3
0
LINE
5
86
100
AcDbEntity
8
0
6
ByLayer
62
256
370
-1
100
AcDbLine
10
544
20
3
11
519
21
3
0
LINE
5
87
100
AcDbEntity
8
0
6
ByLayer
62
256
370
-1
100
AcDbLine
10
519
20
3
11
519
21
0
0
LINE
5
88
100
AcDbEntity
8
0
6
ByLayer
62
256
370
-1
100
AcDbLine
10
544
20
0
11
569
21
0
0
LINE
5
89
100
AcDbEntity
8
0
6
ByLayer
62
256
370
-1
100
AcDbLine
10
594
20
0
11
619
21
0
0
LINE
5
8A
100
AcDbEntity
8
0
6
ByLayer
62
256
370
-1
100
AcDbLine
10
644
20
0
11
669
21
0
0
LINE
5
8B
100
AcDbEntity
8
0
6
ByLayer
62
256
370
-1
100
AcDbLine
10
694
20
0
11
719
21
0
0
LINE
5
8C
100
AcDbEntity
8
0
6
ByLayer
62
256
370
-1
100
AcDbLine
10
494
20
0
11
519
21
0
0
LINE
5
8D
100
AcDbEntity
8
0
6
ByLayer
62
256
370
-1
100
AcDbLine
10
494
20
0
11
494
21
3
0
LINE
5
8E
100
AcDbEntity
8
0
6
ByLayer
62
256
370
-1
100
AcDbLine
10
741
20
3
11
741
21
0
0
LINE
5
8F
100
AcDbEntity
8
0
6
ByLayer
62
256
370
-1
100
AcDbLine
10
741
20
0
11
744
21
0
0
LINE
5
90
100
AcDbEntity
8
0
6
ByLayer
62
256
370
-1
100
AcDbLine
10
741
20
247
11
744
21
247
0
LINE
5
91
100
AcDbEntity
8
0
6
ByLayer
62
256
370
-1
100
AcDbLine
10
744
20
247
11
744
21
250
0
LINE
5
92
100
AcDbEntity
8
0
6
ByLayer
62
256
370
-1
100
AcDbLine
10
497
20
247
11
497
21
250
0
LINE
5
93
100
AcDbEntity
8
0
6
ByLayer
62
256
370
-1
100
AcDbLine
10
497
20
247
11
519
21
247
0
LINE
5
94
100
AcDbEntity
8
0
6
ByLayer
62
256
370
-1
100
AcDbLine
10
744
20
250
11
719
21
250
0
LINE
5
95
100
AcDbEntity
8
0
6
ByLayer
62
256
370
-1
100
AcDbLine
10
741
20
247
11
741
21
225
0
LINE
5
96
100
AcDbEntity
8
0
6
ByLayer
62
256
370
-1
100
AcDbLine
10
744
20
0
11
744
21
25
0
LINE
5
97
100
AcDbEntity
8
0
6
ByLayer
62
256
370
-1
100
AcDbLine
10
741
20
3
11
719
21
3
0
CIRCLE
5
98
100
AcDbEntity
8
0
6
ByLayer
62
256
370
-1
100
AcDbCircle
10
529
20
35
40
12
0
CIRCLE
5
99
100
AcDbEntity
8
0
6
ByLayer
62
256
370
-1
100
AcDbCircle
10
539.606601718
20
24.3933982822
40
1.5
0
CIRCLE
5
9A
100
AcDbEntity
8
0
6
ByLayer
62
256
370
-1
100
AcDbCircle
10
518.393398282
20
45.6066017178
40
1.5
0
CIRCLE
5
9B
100
AcDbEntity
8
0
6
ByLayer
62
256
370
-1
100
AcDbCircle
10
709
20
215
40
12
0
CIRCLE
5
9C
100
AcDbEntity
8
0
6
ByLayer
62
256
370
-1
100
AcDbCircle
10
719.606601718
20
204.393398282
40
1.5
0
CIRCLE
5
9D
100
AcDbEntity
8
0
6
ByLayer
62
256
370
-1
100
AcDbCircle
10
698.393398282
20
225.606601718
40
1.5
0
CIRCLE
5
9E
100
AcDbEntity
8
0
6
ByLayer
62
256
370
-1
100
AcDbCircle
10
529
20
215
40
12
0
CIRCLE
5
9F
100
AcDbEntity
8
0
6
ByLayer
62
256
370
-1
100
AcDbCircle
10
518.393398282
20
204.393398282
40
1.5
0
CIRCLE
5
A0
100
AcDbEntity
8
0
6
ByLayer
62
256
370
-1
100
AcDbCircle
10
539.606601718
20
225.606601718
40
1.5
0
CIRCLE
5
A1
100
AcDbEntity
8
0
6
ByLayer
62
256
370
-1
100
AcDbCircle
10
709
20
35
40
12
0
CIRCLE
5
A2
100
AcDbEntity
8
0
6
ByLayer
62
256
370
-1
100
AcDbCircle
10
698.393398282
20
24.3933982822
40
1.5
0
CIRCLE
5
A3
100
AcDbEntity
8
0
6
ByLayer
62
256
370
-1
100
AcDbCircle
10
719.606601718
20
45.6066017178
40
1.5
0
LINE
5
A4
100
AcDbEntity
8
0
6
ByLayer
62
256
370
-1
100
AcDbLine
10
584
20
190
11
654
21
190
0
LINE
5
A5
100
AcDbEntity
8
0
6
ByLayer
62
256
370
-1
100
AcDbLine
10
654
20
190
11
654
21
187
0
LINE
5
A6
100
AcDbEntity
8
0
6
ByLayer
62
256
370
-1
100
AcDbLine
10
654
20
187
11
584
21
187
0
LINE
5
A7
100
AcDbEntity
8
0
6
ByLayer
62
256
370
-1
100
AcDbLine
10
584
20
187
11
584
21
190
0
LINE
5
A8
100
AcDbEntity
8
0
6
ByLayer
62
256
370
-1
100
AcDbLine
10
684
20
160
11
681
21
160
0
LINE
5
A9
100
AcDbEntity
8
0
6
ByLayer
62
256
370
-1
100
AcDbLine
10
681
20
160
11
681
21
90
0
LINE
5
AA
100
AcDbEntity
8
0
6
ByLayer
62
256
370
-1
100
AcDbLine
10
681
20
90
11
684
21
90
0
LINE
5
AB
100
AcDbEntity
8
0
6
ByLayer
62
256
370
-1
100
AcDbLine
10
684
20
90
11
684
21
160
0
LINE
5
AC
100
AcDbEntity
8
0
6
ByLayer
62
256
370
-1
100
AcDbLine
10
584
20
60
11
654
21
60
0
LINE
5
AD
100
AcDbEntity
8
0
6
ByLayer
62
256
370
-1
100
AcDbLine
10
654
20
60
11
654
21
63
0
LINE
5
AE
100
AcDbEntity
8
0
6
ByLayer
62
256
370
-1
100
AcDbLine
10
654
20
63
11
584
21
63
0
LINE
5
AF
100
AcDbEntity
8
0
6
ByLayer
62
256
370
-1
100
AcDbLine
10
584
20
63
11
584
21
60
0
LINE
5
B0
100
AcDbEntity
8
0
6
ByLayer
62
256
370
-1
100
AcDbLine
10
554
20
160
11
557
21
160
0
LINE
5
B1
100
AcDbEntity
8
0
6
ByLayer
62
256
370
-1
100
AcDbLine
10
557
20
160
11
557
21
90
0
LINE
5
B2
100
AcDbEntity
8
0
6
ByLayer
62
256
370
-1
100
AcDbLine
10
557
20
90
11
554
21
90
0
LINE
5
B3
100
AcDbEntity
8
0
6
ByLayer
62
256
370
-1
100
AcDbLine
10
554
20
90
11
554
21
160
0
LINE
5
B4
100
AcDbEntity
8
0
6
ByLayer
62
256
370
-1
100
AcDbLine
10
25
20
250
11
155
21
250
0
LINE
5
B5
100
AcDbEntity
8
0
6
ByLayer
62
256
370
-1
100
AcDbLine
10
155
20
250
11
155
21
380
0
LINE
5
B6
100
AcDbEntity
8
0
6
ByLayer
62
256
370
-1
100
AcDbLine
10
155
20
380
11
25
21
380
0
LINE
5
B7
100
AcDbEntity
8
0
6
ByLayer
62
256
370
-1
100
AcDbLine
10
25
20
380
11
25
21
250
0
LINE
5
B8
100
AcDbEntity
8
0
6
ByLayer
62
256
370
-1
100
AcDbLine
10
350
20
350
11
330
21
350
0
LINE
5
B9
100
AcDbEntity
8
0
6
ByLayer
62
256
370
-1
100
AcDbLine
10
350
20
350
11
350
21
283
0
LINE
5
BA
100
AcDbEntity
8
0
6
ByLayer
62
256
370
-1
100
AcDbLine
10
330
20
315
11
327
21
315
0
LINE
5
BB
100
AcDbEntity
8
0
6
ByLayer
62
256
370
-1
100
AcDbLine
10
330
20
315
11
330
21
350
0
LINE
5
BC
100
AcDbEntity
8
0
6
ByLayer
62
256
370
-1
100
AcDbLine
10
327
20
315
11
327
21
347
0
LINE
5
BD
100
AcDbEntity
8
0
6
ByLayer
62
256
370
-1
100
AcDbLine
10
200
20
347
11
327
21
347
0
LINE
5
BE
100
AcDbEntity
8
0
6
ByLayer
62
256
370
-1
100
AcDbLine
10
203
20
315
11
200
21
315
0
LINE
5
BF
100
AcDbEntity
8
0
6
ByLayer
62
256
370
-1
100
AcDbLine
10
203
20
283
11
203
21
315
0
LINE
5
C0
100
AcDbEntity
8
0
6
ByLayer
62
256
370
-1
100
AcDbLine
10
200
20
283
11
200
21
315
0
LINE
5
C1
100
AcDbEntity
8
0
6
ByLayer
62
256
370
-1
100
AcDbLine
10
200
20
283
11
180
21
283
0
LINE
5
C2
100
AcDbEntity
8
0
6
ByLayer
62
256
370
-1
100
AcDbLine
10
180
20
283
11
180
21
350
0
LINE
5
C3
100
AcDbEntity
8
0
6
ByLayer
62
256
370
-1
100
AcDbLine
10
180
20
350
11
200
21
350
0
LINE
5
C4
100
AcDbEntity
8
0
6
ByLayer
62
256
370
-1
100
AcDbLine
10
200
20
350
11
200
21
347
0
LINE
5
C5
100
AcDbEntity
8
0
6
ByLayer
62
256
370
-1
100
AcDbLine
10
230
20
283
11
230
21
280
0
LINE
5
C6
100
AcDbEntity
8
0
6
ByLayer
62
256
370
-1
100
AcDbLine
10
203
20
283
11
230
21
283
0
LINE
5
C7
100
AcDbEntity
8
0
6
ByLayer
62
256
370
-1
100
AcDbLine
10
300
20
280
11
300
21
283
0
LINE
5
C8
100
AcDbEntity
8
0
6
ByLayer
62
256
370
-1
100
AcDbLine
10
230
20
280
11
300
21
280
0
LINE
5
C9
100
AcDbEntity
8
0
6
ByLayer
62
256
370
-1
100
AcDbLine
10
300
20
283
11
350
21
283
0
LINE
5
CA
100
AcDbEntity
8
0
6
ByLayer
62
256
370
-1
100
AcDbLine
10
570
20
350
11
550
21
350
0
LINE
5
CB
100
AcDbEntity
8
0
6
ByLayer
62
256
370
-1
100
AcDbLine
10
570
20
350
11
570
21
283
0
LINE
5
CC
100
AcDbEntity
8
0
6
ByLayer
62
256
370
-1
100
AcDbLine
10
550
20
315
11
547
21
315
0
LINE
5
CD
100
AcDbEntity
8
0
6
ByLayer
62
256
370
-1
100
AcDbLine
10
550
20
315
11
550
21
350
0
LINE
5
CE
100
AcDbEntity
8
0
6
ByLayer
62
256
370
-1
100
AcDbLine
10
547
20
315
11
547
21
347
0
LINE
5
CF
100
AcDbEntity
8
0
6
ByLayer
62
256
370
-1
100
AcDbLine
10
420
20
347
11
547
21
347
0
LINE
5
D0
100
AcDbEntity
8
0
6
ByLayer
62
256
370
-1
100
AcDbLine
10
423
20
315
11
420
21
315
0
LINE
5
D1
100
AcDbEntity
8
0
6
ByLayer
62
256
370
-1
100
AcDbLine
10
423
20
283
11
423
21
315
0
LINE
5
D2
100
AcDbEntity
8
0
6
ByLayer
62
256
370
-1
100
AcDbLine
10
420
20
283
11
420
21
315
0
LINE
5
D3
100
AcDbEntity
8
0
6
ByLayer
62
256
370
-1
100
AcDbLine
10
420
20
283
11
400
21
283
0
LINE
5
D4
100
AcDbEntity
8
0
6
ByLayer
62
256
370
-1
100
AcDbLine
10
400
20
283
11
400
21
350
0
LINE
5
D5
100
AcDbEntity
8
0
6
ByLayer
62
256
370
-1
100
AcDbLine
10
400
20
350
11
420
21
350
0
LINE
5
D6
100
AcDbEntity
8
0
6
ByLayer
62
256
370
-1
100
AcDbLine
10
420
20
350
11
420
21
347
0
LINE
5
D7
100
AcDbEntity
8
0
6
ByLayer
62
256
370
-1
100
AcDbLine
10
450
20
283
11
450
21
280
0
LINE
5
D8
100
AcDbEntity
8
0
6
ByLayer
62
256
370
-1
100
AcDbLine
10
423
20
283
11
450
21
283
0
LINE
5
D9
100
AcDbEntity
8
0
6
ByLayer
62
256
370
-1
100
AcDbLine
10
520
20
280
11
520
21
283
0
LINE
5
DA
100
AcDbEntity
8
0
6
ByLayer
62
256
370
-1
100
AcDbLine
10
450
20
280
11
520
21
280
0
LINE
5
DB
100
AcDbEntity
8
0
6
ByLayer
62
256
370
-1
100
AcDbLine
10
520
20
283
11
570
21
283
0
LINE
5
DC
100
AcDbEntity
8
0
6
ByLayer
62
256
370
-1
100
AcDbLine
10
3
20
0
11
3
21
25
0
LINE
5
DD
100
AcDbEntity
8
0
6
ByLayer
62
256
370
-1
100
AcDbLine
10
3
20
25
11
0
21
25
0
LINE
5
DE
100
AcDbEntity
8
0
6
ByLayer
62
256
370
-1
100
AcDbLine
10
0
20
50
11
3
21
50
0
LINE
5
DF
100
AcDbEntity
8
0
6
ByLayer
62
256
370
-1
100
AcDbLine
10
3
20
50
11
3
21
75
0
LINE
5
E0
100
AcDbEntity
8
0
6
ByLayer
62
256
370
-1
100
AcDbLine
10
3
20
75
11
0
21
75
0
LINE
5
E1
100
AcDbEntity
8
0
6
ByLayer
62
256
370
-1
100
AcDbLine
10
0
20
100
11
3
21
100
0
LINE
5
E2
100
AcDbEntity
8
0
6
ByLayer
62
256
370
-1
100
AcDbLine
10
3
20
100
11
3
21
125
0
LINE
5
E3
100
AcDbEntity
8
0
6
ByLayer
62
256
370
-1
100
AcDbLine
10
3
20
125
11
0
21
125
0
LINE
5
E4
100
AcDbEntity
8
0
6
ByLayer
62
256
370
-1
100
AcDbLine
10
0
20
150
11
3
21
150
0
LINE
5
E5
100
AcDbEntity
8
0
6
ByLayer
62
256
370
-1
100
AcDbLine
10
3
20
150
11
3
21
175
0
LINE
5
E6
100
AcDbEntity
8
0
6
ByLayer
62
256
370
-1
100
AcDbLine
10
3
20
175
11
0
21
175
0
LINE
5
E7
100
AcDbEntity
8
0
6
ByLayer
62
256
370
-1
100
AcDbLine
10
0
20
200
11
3
21
200
0
LINE
5
E8
100
AcDbEntity
8
0
6
ByLayer
62
256
370
-1
100
AcDbLine
10
3
20
200
11
3
21
225
0
LINE
5
E9
100
AcDbEntity
8
0
6
ByLayer
62
256
370
-1
100
AcDbLine
10
3
20
225
11
0
21
225
0
LINE
5
EA
100
AcDbEntity
8
0
6
ByLayer
62
256
370
-1
100
AcDbLine
10
0
20
25
11
0
21
50
0
LINE
5
EB
100
AcDbEntity
8
0
6
ByLayer
62
256
370
-1
100
AcDbLine
10
0
20
75
11
0
21
100
0
LINE
5
EC
100
AcDbEntity
8
0
6
ByLayer
62
256
370
-1
100
AcDbLine
10
0
20
125
11
0
21
150
0
LINE
5
ED
100
AcDbEntity
8
0
6
ByLayer
62
256
370
-1
100
AcDbLine
10
0
20
175
11
0
21
200
0
LINE
5
EE
100
AcDbEntity
8
0
6
ByLayer
62
256
370
-1
100
AcDbLine
10
247
20
250
11
247
21
225
0
LINE
5
EF
100
AcDbEntity
8
0
6
ByLayer
62
256
370
-1
100
AcDbLine
10
247
20
225
11
250
21
225
0
LINE
5
F0
100
AcDbEntity
8
0
6
ByLayer
62
256
370
-1
100
AcDbLine
10
250
20
200
11
247
21
200
0
LINE
5
F1
100
AcDbEntity
8
0
6
ByLayer
62
256
370
-1
100
AcDbLine
10
247
20
200
11
247
21
175
0
LINE
5
F2
100
AcDbEntity
8
0
6
ByLayer
62
256
370
-1
100
AcDbLine
10
247
20
175
11
250
21
175
0
LINE
5
F3
100
AcDbEntity
8
0
6
ByLayer
62
256
370
-1
100
AcDbLine
10
250
20
150
11
247
21
150
0
LINE
5
F4
100
AcDbEntity
8
0
6
ByLayer
62
256
370
-1
100
AcDbLine
10
247
20
150
11
247
21
125
0
LINE
5
F5
100
AcDbEntity
8
0
6
ByLayer
62
256
370
-1
100
AcDbLine
10
247
20
125
11
250
21
125
0
LINE
5
F6
100
AcDbEntity
8
0
6
ByLayer
62
256
370
-1
100
AcDbLine
10
250
20
100
11
247
21
100
0
LINE
5
F7
100
AcDbEntity
8
0
6
ByLayer
62
256
370
-1
100
AcDbLine
10
247
20
100
11
247
21
75
0
LINE
5
F8
100
AcDbEntity
8
0
6
ByLayer
62
256
370
-1
100
AcDbLine
10
247
20
75
11
250
21
75
0
LINE
5
F9
100
AcDbEntity
8
0
6
ByLayer
62
256
370
-1
100
AcDbLine
10
250
20
50
11
247
21
50
0
LINE
5
FA
100
AcDbEntity
8
0
6
ByLayer
62
256
370
-1
100
AcDbLine
10
247
20
50
11
247
21
25
0
LINE
5
FB
100
AcDbEntity
8
0
6
ByLayer
62
256
370
-1
100
AcDbLine
10
247
20
25
11
250
21
25
0
LINE
5
FC
100
AcDbEntity
8
0
6
ByLayer
62
256
370
-1
100
AcDbLine
10
250
20
50
11
250
21
75
0
LINE
5
FD
100
AcDbEntity
8
0
6
ByLayer
62
256
370
-1
100
AcDbLine
10
250
20
100
11
250
21
125
0
LINE
5
FE
100
AcDbEntity
8
0
6
ByLayer
62
256
370
-1
100
AcDbLine
10
250
20
150
11
250
21
175
0
LINE
5
FF
100
AcDbEntity
8
0
6
ByLayer
62
256
370
-1
100
AcDbLine
10
250
20
200
11
250
21
225
0
LINE
5
100
100
AcDbEntity
8
0
6
ByLayer
62
256
370
-1
100
AcDbLine
10
0
20
247
11
25
21
247
0
LINE
5
101
100
AcDbEntity
8
0
6
ByLayer
62
256
370
-1
100
AcDbLine
10
25
20
247
11
25
21
250
0
LINE
5
102
100
AcDbEntity
8
0
6
ByLayer
62
256
370
-1
100
AcDbLine
10
50
20
250
11
50
21
247
0
LINE
5
103
100
AcDbEntity
8
0
6
ByLayer
62
256
370
-1
100
AcDbLine
10
50
20
247
11
75
21
247
0
LINE
5
104
100
AcDbEntity
8
0
6
ByLayer
62
256
370
-1
100
AcDbLine
10
75
20
247
11
75
21
250
0
LINE
5
105
100
AcDbEntity
8
0
6
ByLayer
62
256
370
-1
100
AcDbLine
10
100
20
250
11
100
21
247
0
LINE
5
106
100
AcDbEntity
8
0
6
ByLayer
62
256
370
-1
100
AcDbLine
10
100
20
247
11
125
21
247
0
LINE
5
107
100
AcDbEntity
8
0
6
ByLayer
62
256
370
-1
100
AcDbLine
10
125
20
247
11
125
21
250
0
LINE
5
108
100
AcDbEntity
8
0
6
ByLayer
62
256
370
-1
100
AcDbLine
10
150
20
250
11
150
21
247
0
LINE
5
109
100
AcDbEntity
8
0
6
ByLayer
62
256
370
-1
100
AcDbLine
10
150
20
247
11
175
21
247
0
LINE
5
10A
100
AcDbEntity
8
0
6
ByLayer
62
256
370
-1
100
AcDbLine
10
175
20
247
11
175
21
250
0
LINE
5
10B
100
AcDbEntity
8
0
6
ByLayer
62
256
370
-1
100
AcDbLine
10
200
20
250
11
200
21
247
0
LINE
5
10C
100
AcDbEntity
8
0
6
ByLayer
62
256
370
-1
100
AcDbLine
10
200
20
247
11
225
21
247
0
LINE
5
10D
100
AcDbEntity
8
0
6
ByLayer
62
256
370
-1
100
AcDbLine
10
225
20
247
11
225
21
250
0
LINE
5
10E
100
AcDbEntity
8
0
6
ByLayer
62
256
370
-1
100
AcDbLine
10
247
20
250
11
225
21
250
0
LINE
5
10F
100
AcDbEntity
8
0
6
ByLayer
62
256
370
-1
100
AcDbLine
10
200
20
250
11
175
21
250
0
LINE
5
110
100
AcDbEntity
8
0
6
ByLayer
62
256
370
-1
100
AcDbLine
10
0
20
225
11
0
21
247
0
LINE
5
111
100
AcDbEntity
8
0
6
ByLayer
62
256
370
-1
100
AcDbLine
10
250
20
3
11
225
21
3
0
LINE
5
112
100
AcDbEntity
8
0
6
ByLayer
62
256
370
-1
100
AcDbLine
10
225
20
3
11
225
21
0
0
LINE
5
113
100
AcDbEntity
8
0
6
ByLayer
62
256
370
-1
100
AcDbLine
10
200
20
0
11
200
21
3
0
LINE
5
114
100
AcDbEntity
8
0
6
ByLayer
62
256
370
-1
100
AcDbLine
10
200
20
3
11
175
21
3
0
LINE
5
115
100
AcDbEntity
8
0
6
ByLayer
62
256
370
-1
100
AcDbLine
10
175
20
3
11
175
21
0
0
LINE
5
116
100
AcDbEntity
8
0
6
ByLayer
62
256
370
-1
100
AcDbLine
10
150
20
0
11
150
21
3
0
LINE
5
117
100
AcDbEntity
8
0
6
ByLayer
62
256
370
-1
100
AcDbLine
10
150
20
3
11
125
21
3
0
LINE
5
118
100
AcDbEntity
8
0
6
ByLayer
62
256
370
-1
100
AcDbLine
10
125
20
3
11
125
21
0
0
LINE
5
119
100
AcDbEntity
8
0
6
ByLayer
62
256
370
-1
100
AcDbLine
10
100
20
0
11
100
21
3
0
LINE
5
11A
100
AcDbEntity
8
0
6
ByLayer
62
256
370
-1
100
AcDbLine
10
100
20
3
11
75
21
3
0
LINE
5
11B
100
AcDbEntity
8
0
6
ByLayer
62
256
370
-1
100
AcDbLine
10
75
20
3
11
75
21
0
0
LINE
5
11C
100
AcDbEntity
8
0
6
ByLayer
62
256
370
-1
100
AcDbLine
10
50
20
0
11
50
21
3
0
LINE
5
11D
100
AcDbEntity
8
0
6
ByLayer
62
256
370
-1
100
AcDbLine
10
50
20
3
11
25
21
3
0
LINE
5
11E
100
AcDbEntity
8
0
6
ByLayer
62
256
370
-1
100
AcDbLine
10
25
20
3
11
25
21
0
0
LINE
5
11F
100
AcDbEntity
8
0
6
ByLayer
62
256
370
-1
100
AcDbLine
10
3
20
0
11
25
21
0
0
LINE
5
120
100
AcDbEntity
8
0
6
ByLayer
62
256
370
-1
100
AcDbLine
10
50
20
0
11
75
21
0
0
LINE
5
121
100
AcDbEntity
8
0
6
ByLayer
62
256
370
-1
100
AcDbLine
10
100
20
0
11
125
21
0
0
LINE
5
122
100
AcDbEntity
8
0
6
ByLayer
62
256
370
-1
100
AcDbLine
10
150
20
0
11
175
21
0
0
LINE
5
123
100
AcDbEntity
8
0
6
ByLayer
62
256
370
-1
100
AcDbLine
10
200
20
0
11
225
21
0
0
LINE
5
124
100
AcDbEntity
8
0
6
ByLayer
62
256
370
-1
100
AcDbLine
10
20
20
240
11
40
21
240
0
LINE
5
125
100
AcDbEntity
8
0
6
ByLayer
62
256
370
-1
100
AcDbLine
10
40
20
240
11
40
21
237
0
LINE
5
126
100
AcDbEntity
8
0
6
ByLayer
62
256
370
-1
100
AcDbLine
10
40
20
237
11
20
21
237
0
LINE
5
127
100
AcDbEntity
8
0
6
ByLayer
62
256
370
-1
100
AcDbLine
10
20
20
237
11
20
21
240
0
LINE
5
128
100
AcDbEntity
8
0
6
ByLayer
62
256
370
-1
100
AcDbLine
10
230
20
240
11
210
21
240
0
LINE
5
129
100
AcDbEntity
8
0
6
ByLayer
62
256
370
-1
100
AcDbLine
10
210
20
240
11
210
21
237
0
LINE
5
12A
100
AcDbEntity
8
0
6
ByLayer
62
256
370
-1
100
AcDbLine
10
210
20
237
11
230
21
237
0
LINE
5
12B
100
AcDbEntity
8
0
6
ByLayer
62
256
370
-1
100
AcDbLine
10
230
20
237
11
230
21
240
0
LINE
5
12C
100
AcDbEntity
8
0
6
ByLayer
62
256
370
-1
100
AcDbLine
10
250
20
0
11
250
21
25
0
LINE
5
12D
100
AcDbEntity
8
0
6
ByLayer
62
256
370
-1
100
AcDbLine
10
247
20
247
11
272
21
247
0
LINE
5
12E
100
AcDbEntity
8
0
6
ByLayer
62
256
370
-1
100
AcDbLine
10
272
20
247
11
272
21
250
0
LINE
5
12F
100
AcDbEntity
8
0
6
ByLayer
62
256
370
-1
100
AcDbLine
10
297
20
250
11
297
21
247
0
LINE
5
130
100
AcDbEntity
8
0
6
ByLayer
62
256
370
-1
100
AcDbLine
10
297
20
247
11
322
21
247
0
LINE
5
131
100
AcDbEntity
8
0
6
ByLayer
62
256
370
-1
100
AcDbLine
10
322
20
247
11
322
21
250
0
LINE
5
132
100
AcDbEntity
8
0
6
ByLayer
62
256
370
-1
100
AcDbLine
10
347
20
250
11
347
21
247
0
LINE
5
133
100
AcDbEntity
8
0
6
ByLayer
62
256
370
-1
100
AcDbLine
10
347
20
247
11
372
21
247
0
LINE
5
134
100
AcDbEntity
8
0
6
ByLayer
62
256
370
-1
100
AcDbLine
10
372
20
247
11
372
21
250
0
LINE
5
135
100
AcDbEntity
8
0
6
ByLayer
62
256
370
-1
100
AcDbLine
10
397
20
250
11
397
21
247
0
LINE
5
136
100
AcDbEntity
8
0
6
ByLayer
62
256
370
-1
100
AcDbLine
10
397
20
247
11
422
21
247
0
LINE
5
137
100
AcDbEntity
8
0
6
ByLayer
62
256
370
-1
100
AcDbLine
10
422
20
247
11
422
21
250
0
LINE
5
138
100
AcDbEntity
8
0
6
ByLayer
62
256
370
-1
100
AcDbLine
10
447
20
250
11
447
21
247
0
LINE
5
139
100
AcDbEntity
8
0
6
ByLayer
62
256
370
-1
100
AcDbLine
10
447
20
247
11
472
21
247
0
LINE
5
13A
100
AcDbEntity
8
0
6
ByLayer
62
256
370
-1
100
AcDbLine
10
472
20
247
11
472
21
250
0
LINE
5
13B
100
AcDbEntity
8
0
6
ByLayer
62
256
370
-1
100
AcDbLine
10
447
20
250
11
422
21
250
0
LINE
5
13C
100
AcDbEntity
8
0
6
ByLayer
62
256
370
-1
100
AcDbLine
10
397
20
250
11
372
21
250
0
LINE
5
13D
100
AcDbEntity
8
0
6
ByLayer
62
256
370
-1
100
AcDbLine
10
347
20
250
11
322
21
250
0
LINE
5
13E
100
AcDbEntity
8
0
6
ByLayer
62
256
370
-1
100
AcDbLine
10
297
20
250
11
272
21
250
0
LINE
5
13F
100
AcDbEntity
8
0
6
ByLayer
62
256
370
-1
100
AcDbLine
10
497
20
3
11
472
21
3
0
LINE
5
140
100
AcDbEntity
8
0
6
ByLayer
62
256
370
-1
100
AcDbLine
10
472
20
3
11
472
21
0
0
LINE
5
141
100
AcDbEntity
8
0
6
ByLayer
62
256
370
-1
100
AcDbLine
10
447
20
0
11
447
21
3
0
LINE
5
142
100
AcDbEntity
8
0
6
ByLayer
62
256
370
-1
100
AcDbLine
10
447
20
3
11
422
21
3
0
LINE
5
143
100
AcDbEntity
8
0
6
ByLayer
62
256
370
-1
100
AcDbLine
10
422
20
3
11
422
21
0
0
LINE
5
144
100
AcDbEntity
8
0
6
ByLayer
62
256
370
-1
100
AcDbLine
10
397
20
0
11
397
21
3
0
LINE
5
145
100
AcDbEntity
8
0
6
ByLayer
62
256
370
-1
100
AcDbLine
10
397
20
3
11
372
21
3
0
LINE
5
146
100
AcDbEntity
8
0
6
ByLayer
62
256
370
-1
100
AcDbLine
10
372
20
3
11
372
21
0
0
LINE
5
147
100
AcDbEntity
8
0
6
ByLayer
62
256
370
-1
100
AcDbLine
10
347
20
0
11
347
21
3
0
LINE
5
148
100
AcDbEntity
8
0
6
ByLayer
62
256
370
-1
100
AcDbLine
10
347
20
3
11
322
21
3
0
LINE
5
149
100
AcDbEntity
8
0
6
ByLayer
62
256
370
-1
100
AcDbLine
10
322
20
3
11
322
21
0
0
LINE
5
14A
100
AcDbEntity
8
0
6
ByLayer
62
256
370
-1
100
AcDbLine
10
297
20
0
11
297
21
3
0
LINE
5
14B
100
AcDbEntity
8
0
6
ByLayer
62
256
370
-1
100
AcDbLine
10
297
20
3
11
272
21
3
0
LINE
5
14C
100
AcDbEntity
8
0
6
ByLayer
62
256
370
-1
100
AcDbLine
10
272
20
3
11
272
21
0
0
LINE
5
14D
100
AcDbEntity
8
0
6
ByLayer
62
256
370
-1
100
AcDbLine
10
250
20
0
11
272
21
0
0
LINE
5
14E
100
AcDbEntity
8
0
6
ByLayer
62
256
370
-1
100
AcDbLine
10
297
20
0
11
322
21
0
0
LINE
5
14F
100
AcDbEntity
8
0
6
ByLayer
62
256
370
-1
100
AcDbLine
10
347
20
0
11
372
21
0
0
LINE
5
150
100
AcDbEntity
8
0
6
ByLayer
62
256
370
-1
100
AcDbLine
10
397
20
0
11
422
21
0
0
LINE
5
151
100
AcDbEntity
8
0
6
ByLayer
62
256
370
-1
100
AcDbLine
10
447
20
0
11
472
21
0
0
LINE
5
152
100
AcDbEntity
8
0
6
ByLayer
62
256
370
-1
100
AcDbLine
10
267
20
240
11
287
21
240
0
LINE
5
153
100
AcDbEntity
8
0
6
ByLayer
62
256
370
-1
100
AcDbLine
10
287
20
240
11
287
21
237
0
LINE
5
154
100
AcDbEntity
8
0
6
ByLayer
62
256
370
-1
100
AcDbLine
10
287
20
237
11
267
21
237
0
LINE
5
155
100
AcDbEntity
8
0
6
ByLayer
62
256
370
-1
100
AcDbLine
10
267
20
237
11
267
21
240
0
LINE
5
156
100
AcDbEntity
8
0
6
ByLayer
62
256
370
-1
100
AcDbLine
10
477
20
240
11
457
21
240
0
LINE
5
157
100
AcDbEntity
8
0
6
ByLayer
62
256
370
-1
100
AcDbLine
10
457
20
240
11
457
21
237
0
LINE
5
158
100
AcDbEntity
8
0
6
ByLayer
62
256
370
-1
100
AcDbLine
10
457
20
237
11
477
21
237
0
LINE
5
159
100
AcDbEntity
8
0
6
ByLayer
62
256
370
-1
100
AcDbLine
10
477
20
237
11
477
21
240
0
LINE
5
15A
100
AcDbEntity
8
0
6
ByLayer
62
256
370
-1
100
AcDbLine
10
497
20
250
11
472
21
250
0
ENDSEC
0
SECTION
2
OBJECTS
0
DICTIONARY
5
C
330
0
100
AcDbDictionary
281
1
3
ACAD_GROUP
350
D
0
DICTIONARY
5
D
330
C
100
AcDbDictionary
281
1
0
ENDSEC
0
EOF
